<?xml version="1.0" encoding="UTF-8" standalone="no"?>
<!-- Created with Inkscape (http://www.inkscape.org/) -->

<svg
   xmlns:dc="http://purl.org/dc/elements/1.1/"
   xmlns:cc="http://creativecommons.org/ns#"
   xmlns:rdf="http://www.w3.org/1999/02/22-rdf-syntax-ns#"
   xmlns:svg="http://www.w3.org/2000/svg"
   xmlns="http://www.w3.org/2000/svg"
   xmlns:sodipodi="http://sodipodi.sourceforge.net/DTD/sodipodi-0.dtd"
   xmlns:inkscape="http://www.inkscape.org/namespaces/inkscape"
   version="1.1"
   id="svg78"
   width="28.543785"
   height="34.366142"
   viewBox="0 0 28.543785 34.366142"
   sodipodi:docname="borrar.png.svg"
   inkscape:version="0.92.5 (2060ec1f9f, 2020-04-08)">
  <metadata
     id="metadata84">
    <rdf:RDF>
      <cc:Work
         rdf:about="">
        <dc:format>image/svg+xml</dc:format>
        <dc:type
           rdf:resource="http://purl.org/dc/dcmitype/StillImage" />
        <dc:title></dc:title>
      </cc:Work>
    </rdf:RDF>
  </metadata>
  <defs
     id="defs82" />
  <sodipodi:namedview
     pagecolor="#ffffff"
     bordercolor="#666666"
     borderopacity="1"
     objecttolerance="10"
     gridtolerance="10"
     guidetolerance="10"
     inkscape:pageopacity="0"
     inkscape:pageshadow="2"
     inkscape:window-width="1860"
     inkscape:window-height="1016"
     id="namedview80"
     showgrid="false"
     fit-margin-top="0"
     fit-margin-left="0"
     fit-margin-right="0"
     fit-margin-bottom="0"
     inkscape:zoom="24.209874"
     inkscape:cx="14.271892"
     inkscape:cy="17.183072"
     inkscape:window-x="60"
     inkscape:window-y="27"
     inkscape:window-maximized="1"
     inkscape:current-layer="svg78" />
  <path
     style="fill:#ffffff;stroke-width:0.0694576"
     d="m 6.2434545,34.25473 c -0.20472,-0.0667 -0.50345,-0.20252 -0.66385,-0.30191 -0.33951,-0.21038 -0.75072,-0.76491 -0.86112,-1.16125 -0.083,-0.29803 -1.7994,-19.94079 -1.7994,-20.59282 0,-0.32001 0.0329,-0.42942 0.17799,-0.59081 0.0979,-0.10895 0.26747,-0.23266 0.37684,-0.27491 0.14683,-0.0567 2.99955,-0.0722 10.9060305,-0.0591 l 10.70719,0.0177 0.19447,0.16804 c 0.43736,0.37789 0.47258,-0.38499 -0.50399,10.91705 -0.88209,10.20845 -0.8942,10.32825 -1.08478,10.72589 -0.22163,0.46243 -0.66675,0.88151 -1.16557,1.09738 l -0.33562,0.14523 -7.78798,0.0153 c -7.3436705,0.0145 -7.8092205,0.008 -8.1602105,-0.10583 z m 3.04955,-2.12114 c 0.2565,-0.12496 0.48902,-0.36457 0.58575,-0.6036 0.0603,-0.14905 -0.0471,-2.1254 -0.46381,-8.53588 -0.29826,-4.58806 -0.57691,-8.46139 -0.61923,-8.60742 -0.22171,-0.76508 -1.22694,-1.02573 -1.81875,-0.47159 -0.15143,0.14179 -0.2663,0.32875 -0.29742,0.48405 -0.0285,0.14223 0.19175,3.93102 0.50298,8.65198 0.51459,7.80567 0.5641,8.41628 0.70106,8.64445 0.27349,0.45565 0.94492,0.66432 1.40942,0.43801 z m 5.5960805,-0.0852 c 0.10319,-0.0721 0.2542,-0.21468 0.3356,-0.31677 0.14767,-0.18521 0.14799,-0.20425 0.14799,-8.81244 0,-8.6082 -2.6e-4,-8.62724 -0.14799,-8.81244 -0.52959,-0.6642 -1.52462,-0.64345 -1.89673,0.0396 -0.1426,0.26172 -0.14453,0.37894 -0.14453,8.77787 v 8.51259 l 0.15135,0.25216 c 0.21797,0.36315 0.58757,0.55051 1.0204,0.51725 0.19214,-0.0148 0.42982,-0.085 0.53391,-0.15777 z m 5.40438,0.035 c 0.58356,-0.30711 0.5143,0.25296 1.0752,-8.69478 0.60215,-9.60594 0.574,-8.94245 0.39169,-9.23354 -0.23448,-0.37438 -0.49016,-0.51111 -0.95571,-0.51111 -0.46618,0 -0.79927,0.17376 -0.98792,0.51537 -0.0898,0.16259 -0.21646,1.86098 -0.64499,8.64819 -0.29328,4.64524 -0.51483,8.52764 -0.49233,8.62756 0.0225,0.0999 0.10848,0.26212 0.19107,0.36044 0.36609,0.43579 0.9265,0.54916 1.42299,0.28787 z M 0.64072452,9.12703 c -0.24018,-0.0434 -0.58111,-0.39729 -0.6332,-0.65733 -0.0353,-0.17632 0.0483,-0.49649 0.36392,-1.39203 0.46617,-1.32305 0.62871998,-1.60214 1.05830998,-1.81704 l 0.30498,-0.15254 h 12.5253705 12.52537 l 0.32023,0.16802 c 0.17612,0.0924 0.39199,0.2678 0.47971,0.38975 0.19794,0.27516 0.95874,2.3935 0.95837,2.66844 -3.4e-4,0.28711 -0.24847,0.6303 -0.53733,0.74332 -0.21258,0.0832 -2.14212,0.0955 -13.7261,0.0876 C 6.8670545,9.16022 0.72921452,9.14302 0.64072452,9.12702 Z M 9.0323545,2.16758 c 0.0207,-0.71718 0.0467,-0.86532 0.20135,-1.14883 0.20881,-0.3828 0.5494,-0.68064 1.0031505,-0.87722 C 10.555735,0.00337 10.652355,0 14.295995,0 h 3.73249 l 0.35889,0.17883 c 0.82375,0.41046 1.12263,0.93556 1.17027,2.05596 l 0.0321,0.75613 h -1.1216 -1.1216 V 2.52044 2.04995 h -3.08648 -3.08649 v 0.47049 0.47048 h -1.08253 -1.0825405 z"
     id="path88"
     inkscape:connector-curvature="0" />
</svg>
