<?xml version="1.0" encoding="UTF-8" standalone="no"?>
<!-- Created with Inkscape (http://www.inkscape.org/) -->

<svg
   xmlns:dc="http://purl.org/dc/elements/1.1/"
   xmlns:cc="http://creativecommons.org/ns#"
   xmlns:rdf="http://www.w3.org/1999/02/22-rdf-syntax-ns#"
   xmlns:svg="http://www.w3.org/2000/svg"
   xmlns="http://www.w3.org/2000/svg"
   xmlns:sodipodi="http://sodipodi.sourceforge.net/DTD/sodipodi-0.dtd"
   xmlns:inkscape="http://www.inkscape.org/namespaces/inkscape"
   version="1.1"
   id="svg78"
   width="12.45868"
   height="14.999972"
   viewBox="0 0 12.45868 14.999972"
   sodipodi:docname="borrar.svg"
   inkscape:version="0.92.5 (2060ec1f9f, 2020-04-08)">
  <metadata
     id="metadata84">
    <rdf:RDF>
      <cc:Work
         rdf:about="">
        <dc:format>image/svg+xml</dc:format>
        <dc:type
           rdf:resource="http://purl.org/dc/dcmitype/StillImage" />
        <dc:title></dc:title>
      </cc:Work>
    </rdf:RDF>
  </metadata>
  <defs
     id="defs82" />
  <sodipodi:namedview
     pagecolor="#ffffff"
     bordercolor="#666666"
     borderopacity="1"
     objecttolerance="10"
     gridtolerance="10"
     guidetolerance="10"
     inkscape:pageopacity="0"
     inkscape:pageshadow="2"
     inkscape:window-width="1860"
     inkscape:window-height="1016"
     id="namedview80"
     showgrid="false"
     fit-margin-top="0"
     fit-margin-left="0"
     fit-margin-right="0"
     fit-margin-bottom="0"
     inkscape:zoom="24.209874"
     inkscape:cx="7.7043242"
     inkscape:cy="4.502273"
     inkscape:window-x="60"
     inkscape:window-y="27"
     inkscape:window-maximized="1"
     inkscape:current-layer="svg78" />
  <path
     style="fill:#ffffff;stroke-width:0.03031658"
     d="M 2.7251187,14.951366 C 2.6357633,14.922253 2.5053748,14.862971 2.4353641,14.81959 2.2871761,14.727764 2.1076927,14.485725 2.0595058,14.312732 2.0232783,14.182649 1.2741107,5.6090544 1.2741107,5.3244584 c 0,-0.139677 0.01436,-0.187432 0.077688,-0.257874 0.042731,-0.04755 0.1167442,-0.101551 0.1644816,-0.119992 0.064088,-0.02475 1.3092319,-0.03151 4.7602216,-0.0258 l 4.6734331,0.0077 0.08488,0.07334 c 0.190897,0.16494 0.20627,-0.168039 -0.219979,4.765032 -0.385012,4.4557436 -0.390297,4.5080336 -0.473481,4.6815936 -0.09674,0.20184 -0.29102,0.384758 -0.5087441,0.47898 l -0.14649,0.06339 -3.399267,0.0067 c -3.2053364,0.0063 -3.4085378,0.0035 -3.5617366,-0.04619 z m 1.3310562,-0.925827 c 0.111956,-0.05454 0.213445,-0.159126 0.255665,-0.263457 0.02632,-0.06506 -0.02056,-0.927686 -0.202442,-3.725707 -0.130183,-2.0025786 -0.251807,-3.6931946 -0.270279,-3.7569326 -0.09677,-0.33394 -0.5355297,-0.447707 -0.7938406,-0.205838 -0.066096,0.06189 -0.1162336,0.143491 -0.1298167,0.211276 -0.01244,0.06208 0.083694,1.715796 0.2195387,3.7763816 0.2246063,3.406989 0.2462162,3.673506 0.3059956,3.773096 0.119372,0.198881 0.412435,0.28996 0.615179,0.191181 z m 2.442555,-0.03719 c 0.04504,-0.03147 0.110952,-0.0937 0.146481,-0.138262 0.06446,-0.08084 0.06459,-0.08915 0.06459,-3.84642 0,-3.7572726 -1.13e-4,-3.7655836 -0.06459,-3.8464186 -0.231153,-0.289907 -0.66546,-0.28085 -0.827877,0.01729 -0.06224,0.114234 -0.06308,0.165398 -0.06308,3.8313296 v 3.715542 l 0.06606,0.110062 c 0.09514,0.158506 0.25646,0.240284 0.44538,0.225767 0.08386,-0.0065 0.187606,-0.0371 0.233039,-0.06886 z m 2.358883,0.01528 c 0.25471,-0.134046 0.224479,0.110411 0.469299,-3.795064 0.262824,-4.1927626 0.250537,-3.9031646 0.170963,-4.0302186 -0.102345,-0.163408 -0.213943,-0.223087 -0.417145,-0.223087 -0.203476,0 -0.348862,0.07584 -0.431203,0.224946 -0.0392,0.07097 -0.09448,0.812274 -0.281523,3.774729 -0.128009,2.0275356 -0.224711,3.7221106 -0.21489,3.7657226 0.0098,0.0436 0.04735,0.114409 0.0834,0.157324 0.15979,0.190212 0.404395,0.239695 0.621101,0.125648 z M 0.27966109,3.9837264 c -0.1048328,-0.01894 -0.2536406,-0.173408 -0.2763767,-0.286909 -0.015408,-0.07696 0.021082,-0.216706 0.1588424,-0.6075884 0.2034721,-0.57748 0.2744212,-0.699296 0.461927,-0.793094 l 0.1331165,-0.06658 H 6.2241949 11.69122 l 0.139772,0.07334 c 0.07687,0.04033 0.171095,0.116888 0.209382,0.170117 0.0864,0.1201 0.418467,1.0447054 0.418306,1.1647104 -1.49e-4,0.125317 -0.108451,0.275111 -0.234532,0.324441 -0.09279,0.03632 -0.934984,0.04168 -5.9911141,0.03824 -3.2357287,-0.0022 -5.91474911,-0.0097 -5.95337281,-0.01667 z M 3.9424069,0.946092 c 0.009,-0.313032 0.02038,-0.377691 0.08788,-0.501437 0.09114,-0.167083 0.2398,-0.297083 0.437851,-0.382885 C 4.6073219,0.00147 4.6494939,0 6.2398559,0 h 1.629142 l 0.156647,0.07805 c 0.359548,0.179156 0.490002,0.40835 0.510795,0.897378 l 0.01401,0.330032 H 8.0609039 7.5713519 V 1.100107 0.894749 H 6.2241779 4.8769989 V 1.100107 1.30546 h -0.472499 -0.472503 z"
     id="path88"
     inkscape:connector-curvature="0" />
</svg>
