<?xml version="1.0" encoding="UTF-8" standalone="no"?>
<!-- Created with Inkscape (http://www.inkscape.org/) -->

<svg
   xmlns:dc="http://purl.org/dc/elements/1.1/"
   xmlns:cc="http://creativecommons.org/ns#"
   xmlns:rdf="http://www.w3.org/1999/02/22-rdf-syntax-ns#"
   xmlns:svg="http://www.w3.org/2000/svg"
   xmlns="http://www.w3.org/2000/svg"
   xmlns:sodipodi="http://sodipodi.sourceforge.net/DTD/sodipodi-0.dtd"
   xmlns:inkscape="http://www.inkscape.org/namespaces/inkscape"
   version="1.1"
   id="svg182"
   width="15.000063"
   height="14.996964"
   viewBox="0 0 15.000063 14.996964"
   sodipodi:docname="editar.svg"
   inkscape:version="0.92.5 (2060ec1f9f, 2020-04-08)">
  <metadata
     id="metadata188">
    <rdf:RDF>
      <cc:Work
         rdf:about="">
        <dc:format>image/svg+xml</dc:format>
        <dc:type
           rdf:resource="http://purl.org/dc/dcmitype/StillImage" />
        <dc:title></dc:title>
      </cc:Work>
    </rdf:RDF>
  </metadata>
  <defs
     id="defs186" />
  <sodipodi:namedview
     pagecolor="#ffffff"
     bordercolor="#666666"
     borderopacity="1"
     objecttolerance="10"
     gridtolerance="10"
     guidetolerance="10"
     inkscape:pageopacity="0"
     inkscape:pageshadow="2"
     inkscape:window-width="1860"
     inkscape:window-height="1016"
     id="namedview184"
     showgrid="false"
     fit-margin-top="0"
     fit-margin-left="0"
     fit-margin-right="0"
     fit-margin-bottom="0"
     inkscape:zoom="3.019685"
     inkscape:cx="134.07186"
     inkscape:cy="-89.457217"
     inkscape:window-x="60"
     inkscape:window-y="27"
     inkscape:window-maximized="1"
     inkscape:current-layer="svg182" />
  <path
     style="fill:#ffffff;stroke-width:0.03191807"
     d="m 1.1569195,14.968268 c -0.567267,-0.0829 -1.043513,-0.57048 -1.128022,-1.15491 -0.03853,-0.26644 -0.03853,-12.3607501 0,-12.6271801 0.08664,-0.59916002 0.557611,-1.07013002 1.156771,-1.15677002 0.241568,-0.0349 7.654146,-0.041 7.654146,-0.006 0,0.0133 -0.448932,0.47289 -0.997627,1.02138002 l -0.997627,0.99725 h -2.401739 -2.401739 l 0.0081,5.45001 0.0081,5.4500101 h 5.442031 5.4420315 l 0.01596,-2.40178 0.01596,-2.4017901 1.013399,-1.01338 1.013399,-1.01339 -6.42e-4,3.75031 c -3.57e-4,2.0861901 -0.01356,3.8396201 -0.02975,3.9515901 -0.08667,0.59939 -0.542743,1.05666 -1.150579,1.15359 -0.243615,0.0389 -12.3965845,0.0401 -12.6621145,0.001 z m 2.256823,-4.74869 V 8.8538879 l 0.161113,-0.15839 0.161113,-0.15839 0.29372,0.15292 c 0.458975,0.23896 0.864995,0.54531 1.299138,0.98022 0.435723,0.4365001 0.743344,0.8442101 0.98017,1.2990901 l 0.152921,0.29371 -0.15839,0.16112 -0.158391,0.16111 h -1.365697 -1.365697 z m 3.668165,-0.0118 c -0.39725,-0.6081301 -1.043978,-1.3268901 -1.593491,-1.7710001 -0.233373,-0.1886 -0.861783,-0.63194 -0.936244,-0.66052 -0.02049,-0.008 1.318958,-1.37208 2.976553,-3.03161 l 3.0138105,-3.01731 0.21793,0.10974 c 0.98072,0.49389 1.907561,1.42073 2.401444,2.40145 l 0.109748,0.21793 -3.008307,3.00818 -3.0083065,3.0081801 z M 13.842701,3.3264479 c -0.590368,-0.86927 -1.340251,-1.60985 -2.203757,-2.17644 l -0.312882,-0.20530002 0.470915,-0.4717 0.470914,-0.4717 0.193066,0.0177 c 1.666846,0.15293 2.338334,0.80113 2.507192,2.42026002 l 0.03011,0.2887 -0.453548,0.45483 c -0.249451,0.25016 -0.461896,0.45483 -0.472099,0.45483 -0.0102,0 -0.113664,-0.14004 -0.229909,-0.3112 z"
     id="path192"
     inkscape:connector-curvature="0" />
</svg>
