<?xml version="1.0" encoding="UTF-8" standalone="no"?>
<!-- Created with Inkscape (http://www.inkscape.org/) -->

<svg
   xmlns:dc="http://purl.org/dc/elements/1.1/"
   xmlns:cc="http://creativecommons.org/ns#"
   xmlns:rdf="http://www.w3.org/1999/02/22-rdf-syntax-ns#"
   xmlns:svg="http://www.w3.org/2000/svg"
   xmlns="http://www.w3.org/2000/svg"
   xmlns:sodipodi="http://sodipodi.sourceforge.net/DTD/sodipodi-0.dtd"
   xmlns:inkscape="http://www.inkscape.org/namespaces/inkscape"
   width="40.772976mm"
   height="31.276619mm"
   viewBox="0 0 32.618381 25.021294"
   version="1.1"
   id="svg8"
   inkscape:version="0.92.5 (2060ec1f9f, 2020-04-08)"
   sodipodi:docname="logo_libro.svg">
  <defs
     id="defs2">
    <clipPath
       clipPathUnits="userSpaceOnUse"
       id="clipPath75">
      <rect
         style="fill:#ffffff;stroke-width:0.26458332"
         id="rect77"
         width="60.483459"
         height="50.081848"
         x="47.577751"
         y="25.787544" />
    </clipPath>
  </defs>
  <sodipodi:namedview
     id="base"
     pagecolor="#ffffff"
     bordercolor="#666666"
     borderopacity="1.0"
     inkscape:pageopacity="0.0"
     inkscape:pageshadow="2"
     inkscape:zoom="2.9956115"
     inkscape:cx="124.32707"
     inkscape:cy="24.417872"
     inkscape:document-units="mm"
     inkscape:current-layer="layer1"
     showgrid="false"
     inkscape:window-width="1860"
     inkscape:window-height="1016"
     inkscape:window-x="60"
     inkscape:window-y="27"
     inkscape:window-maximized="1"
     inkscape:pagecheckerboard="true"
     scale-x="0.8"
     fit-margin-top="0"
     fit-margin-left="0"
     fit-margin-right="0"
     fit-margin-bottom="0" />
  <metadata
     id="metadata5">
    <rdf:RDF>
      <cc:Work
         rdf:about="">
        <dc:format>image/svg+xml</dc:format>
        <dc:type
           rdf:resource="http://purl.org/dc/dcmitype/StillImage" />
        <dc:title></dc:title>
      </cc:Work>
    </rdf:RDF>
  </metadata>
  <g
     inkscape:label="Capa 1"
     inkscape:groupmode="layer"
     id="layer1"
     transform="translate(-50.451243,-59.741924)">
    <path
       style="fill:#ffffff;stroke-width:0.15772943"
       d="M 50.451243,74.193106 V 63.622992 h 0.776542 c 0.605305,0 0.883561,0.09005 1.261837,0.408344 l 0.48529,0.408346 v 9.055421 c 0,4.980482 0.05324,9.05449 0.118299,9.053349 0.06506,-0.0011 0.792589,-0.141605 1.616727,-0.312144 3.158734,-0.653646 6.11292,-0.570557 8.653746,0.243393 1.145327,0.366904 3.243505,1.474611 2.387313,1.260355 -2.285271,-0.571881 -3.993578,-0.891333 -5.448137,-1.018798 -3.17021,-0.277811 -6.434312,0.276382 -8.786948,1.491887 l -1.064669,0.550073 z m 31.388154,9.997207 c -1.392154,-0.721336 -3.482776,-1.290156 -5.407358,-1.471245 -2.477676,-0.23313 -4.902433,0.04857 -8.788289,1.020988 -0.856192,0.214256 1.241986,-0.893451 2.387314,-1.260355 2.540832,-0.81395 5.495011,-0.897039 8.653745,-0.243393 0.824138,0.170539 1.551662,0.311006 1.616725,0.312144 0.06506,0.0011 0.118299,-4.072867 0.118299,-9.053349 v -9.055421 l 0.494214,-0.415858 c 0.417067,-0.350936 0.620221,-0.408529 1.301266,-0.368914 l 0.807052,0.04695 0.0406,10.401112 c 0.02229,5.720612 -0.01323,10.450037 -0.07886,10.509842 -0.0657,0.0598 -0.58081,-0.130323 -1.14469,-0.422498 z M 64.759165,82.007835 c -2.250463,-1.458002 -5.242057,-2.137969 -8.010979,-1.820838 -0.730657,0.08368 -1.576422,0.223842 -1.879477,0.311463 -0.303062,0.08762 -0.604716,0.159312 -0.670351,0.159312 -0.06564,0 -0.119342,-4.289402 -0.119342,-9.532002 0,-9.525839 1.61e-4,-9.53207 0.329172,-9.636477 0.443888,-0.140885 1.332493,0.04044 2.108301,0.430221 1.300044,0.653163 1.190306,-0.167795 1.190306,8.904614 v 8.09862 h 0.938615 c 2.091991,0 4.495722,0.938176 6.046629,2.359995 0.754055,0.691293 1.373829,1.436469 1.182807,1.422136 -0.02474,-0.0018 -0.5268,-0.315527 -1.115681,-0.697044 z m 2.85879,0.433162 c 0.353662,-0.660827 2.021544,-1.975573 3.25925,-2.569186 1.427023,-0.684408 2.506792,-0.949063 3.872132,-0.949063 h 0.938615 v -8.09862 c 0,-9.072409 -0.109732,-8.251451 1.190306,-8.904614 0.775808,-0.389777 1.664407,-0.571106 2.108307,-0.430221 0.328957,0.104407 0.32916,0.110638 0.32916,9.636477 0,5.2426 -0.05371,9.532002 -0.119336,9.532002 -0.06563,0 -0.36729,-0.07172 -0.670351,-0.159386 -1.086535,-0.31429 -3.217334,-0.46454 -4.577875,-0.322801 -2.152988,0.224294 -3.950114,0.906452 -6.051887,2.297181 l -0.457253,0.302563 z m -1.70923,-1.455148 c 0,-0.322131 -1.980083,-2.096502 -2.936313,-2.631257 -1.205997,-0.674429 -2.156785,-0.987542 -3.451727,-1.136713 l -0.946377,-0.10902 -0.04078,-8.586996 c -0.02248,-4.722846 0.01538,-8.643181 0.08406,-8.711853 0.238421,-0.238428 2.013658,0.182279 3.165781,0.750246 1.364148,0.67249 2.825735,2.030949 3.788237,3.520947 l 0.652609,1.010261 v 8.019749 c 0,5.241344 -0.05467,8.019747 -0.157733,8.019747 -0.08675,0 -0.157728,-0.0653 -0.157728,-0.145111 z M 65.20071,75.134388 c 0.118727,-0.192106 -1.364708,-1.673008 -2.36587,-2.361823 -0.955081,-0.657115 -1.954329,-1.097683 -2.499222,-1.101908 -0.588488,-0.0045 -0.475042,0.350666 0.153006,0.479116 0.840109,0.17182 2.136636,0.992017 3.278327,2.073901 1.167694,1.106529 1.271846,1.172688 1.433759,0.910714 z m 0.0771,-2.820696 c 0,-0.294495 -2.367975,-2.338593 -3.255291,-2.810052 -1.165734,-0.61939 -2.107508,-0.823402 -2.107508,-0.456535 0,0.142893 0.128814,0.254147 0.294262,0.254147 0.609329,0 2.499114,1.11896 3.570108,2.113893 1.030427,0.957249 1.498429,1.237891 1.498429,0.898547 z m -0.07705,-2.699918 c 0.112838,-0.182576 -1.41777,-1.708238 -2.367753,-2.360099 -1.016656,-0.697611 -1.923348,-1.107012 -2.451667,-1.107012 -0.722019,0 -0.506668,0.296882 0.450362,0.620867 1.023475,0.346482 2.226307,1.163014 3.25721,2.211124 0.814063,0.827656 0.946204,0.903139 1.111848,0.63512 z m -0.01133,-2.820801 c 0.04841,-0.07829 -0.448437,-0.643286 -1.104045,-1.255555 -1.68762,-1.576044 -4.170382,-2.762715 -4.170382,-1.993291 0,0.130128 0.132421,0.236595 0.294268,0.236595 0.598903,0 2.499346,1.127669 3.570108,2.118404 1.142758,1.05735 1.262201,1.133069 1.410051,0.893847 z m 1.981131,6.31824 v -8.019749 l 0.652604,-1.010261 c 0.962508,-1.489998 2.424095,-2.848457 3.788236,-3.520947 1.152118,-0.567967 2.927359,-0.988674 3.165787,-0.750246 0.06867,0.06867 0.106495,3.989007 0.08405,8.711853 l -0.04078,8.586996 -0.867507,0.09444 c -2.093421,0.227895 -3.886422,1.115079 -5.522178,2.732393 -0.519598,0.513744 -0.944731,0.992847 -0.944731,1.064674 0,0.07183 -0.07098,0.130593 -0.157728,0.130593 -0.103085,0 -0.157727,-2.778403 -0.157727,-8.019747 z m 2.435452,1.118891 c 1.169781,-1.092446 2.466415,-1.909823 3.300109,-2.080331 0.628048,-0.12845 0.741482,-0.483677 0.152994,-0.479116 -0.541196,0.0042 -1.549971,0.446921 -2.45739,1.078488 -1.485957,1.034243 -2.805394,2.545826 -2.222205,2.545826 0.04745,0 0.59935,-0.47919 1.226492,-1.064867 z M 68.99437,71.966186 c 1.133143,-1.197689 3.442838,-2.659114 4.209341,-2.663393 0.151813,-7.75e-4 0.276026,-0.115907 0.276026,-0.255688 0,-0.363469 -0.938377,-0.16465 -2.076366,0.439933 -0.991552,0.52679 -3.338471,2.599267 -3.199003,2.824928 0.146562,0.23715 0.303461,0.168477 0.790002,-0.34578 z m 0.311467,-2.987532 c 1.030904,-1.04811 2.233735,-1.864642 3.257211,-2.211124 0.92972,-0.31474 1.177149,-0.622682 0.496074,-0.617403 -0.539718,0.0042 -1.547074,0.445546 -2.457396,1.076679 -0.938585,0.650733 -2.509785,2.22186 -2.399844,2.399738 0.157018,0.254064 0.298459,0.171057 1.103955,-0.64789 z m 0.416817,-3.162928 c 1.200244,-1.057637 2.871542,-2.034605 3.481057,-2.03488 0.151813,-6.7e-5 0.276026,-0.114491 0.276026,-0.254272 0,-0.532252 -1.760231,0.09187 -3.075721,1.09056 -1.399595,1.062532 -2.504903,2.318177 -2.040621,2.318177 0.04882,0 0.660467,-0.503814 1.359259,-1.119585 z"
       id="path79"
       inkscape:connector-curvature="0"
       mask="none"
       sodipodi:nodetypes="ccsccsccscsccccsssccsccccccccsscsscsscsscsccscsccsscscccccccccsccssccccccccscsssscsscccccsssccccscccccssccccccscccscccccccccccscsc" />
  </g>
</svg>
